<?xml version="1.0" encoding="UTF-8" standalone="no"?>
<!-- Created with Inkscape (http://www.inkscape.org/) -->

<svg
   xmlns:osb="http://www.openswatchbook.org/uri/2009/osb"
   xmlns:dc="http://purl.org/dc/elements/1.1/"
   xmlns:cc="http://creativecommons.org/ns#"
   xmlns:rdf="http://www.w3.org/1999/02/22-rdf-syntax-ns#"
   xmlns:svg="http://www.w3.org/2000/svg"
   xmlns="http://www.w3.org/2000/svg"
   xmlns:xlink="http://www.w3.org/1999/xlink"
   xmlns:sodipodi="http://sodipodi.sourceforge.net/DTD/sodipodi-0.dtd"
   xmlns:inkscape="http://www.inkscape.org/namespaces/inkscape"
   width="200"
   height="200"
   id="svg2"
   version="1.1"
   inkscape:version="0.48.4 r9939"
   sodipodi:docname="loancalc.svg"
   inkscape:export-filename="/home/xavier/Bureau/dessin-xxx.png"
   inkscape:export-xdpi="82.752922"
   inkscape:export-ydpi="82.752922">
  <title
     id="title3021">Loancalc</title>
  <defs
     id="defs4">
    <linearGradient
       id="linearGradient3942">
      <stop
         style="stop-color:#606060;stop-opacity:1;"
         offset="0"
         id="stop3944" />
      <stop
         style="stop-color:#808080;stop-opacity:1;"
         offset="1"
         id="stop3946" />
    </linearGradient>
    <linearGradient
       id="linearGradient3765"
       osb:paint="solid">
      <stop
         style="stop-color:#000000;stop-opacity:1;"
         offset="0"
         id="stop3767" />
    </linearGradient>
    <linearGradient
       id="linearGradient3759"
       osb:paint="solid">
      <stop
         style="stop-color:#ff0000;stop-opacity:1;"
         offset="0"
         id="stop3761" />
    </linearGradient>
    <linearGradient
       inkscape:collect="always"
       xlink:href="#linearGradient3942"
       id="linearGradient3948"
       x1="0"
       y1="99.859375"
       x2="179.625"
       y2="99.859375"
       gradientUnits="userSpaceOnUse" />
    <linearGradient
       inkscape:collect="always"
       xlink:href="#linearGradient3942-9"
       id="linearGradient3948-0"
       x1="0"
       y1="99.859375"
       x2="179.625"
       y2="99.859375"
       gradientUnits="userSpaceOnUse" />
    <linearGradient
       id="linearGradient3942-9">
      <stop
         style="stop-color:#606060;stop-opacity:1;"
         offset="0"
         id="stop3944-0" />
      <stop
         style="stop-color:#808080;stop-opacity:1;"
         offset="1"
         id="stop3946-0" />
    </linearGradient>
  </defs>
  <sodipodi:namedview
     id="base"
     pagecolor="#ffffff"
     bordercolor="#666666"
     borderopacity="1.0"
     inkscape:pageopacity="0.0"
     inkscape:pageshadow="2"
     inkscape:zoom="1.3125353"
     inkscape:cx="-32.932668"
     inkscape:cy="82.579785"
     inkscape:document-units="px"
     inkscape:current-layer="layer1"
     showgrid="true"
     width="640px"
     showborder="true"
     objecttolerance="10000"
     guidetolerance="10000"
     inkscape:window-width="1280"
     inkscape:window-height="974"
     inkscape:window-x="0"
     inkscape:window-y="25"
     inkscape:window-maximized="1"
     inkscape:snap-bbox="true"
     inkscape:snap-page="false"
     inkscape:snap-grids="true"
     inkscape:bbox-paths="true"
     inkscape:bbox-nodes="true">
    <inkscape:grid
       type="xygrid"
       id="grid2985"
       empspacing="5"
       visible="true"
       enabled="true"
       snapvisiblegridlinesonly="true"
       units="px"
       spacingx="10px"
       spacingy="10px"
       dotted="false" />
  </sodipodi:namedview>
  <metadata
     id="metadata7">
    <rdf:RDF>
      <cc:Work
         rdf:about="">
        <dc:format>image/svg+xml</dc:format>
        <dc:type
           rdf:resource="http://purl.org/dc/dcmitype/StillImage" />
        <dc:title>Loancalc</dc:title>
        <cc:license
           rdf:resource="" />
        <dc:date>6/12/2014</dc:date>
        <dc:creator>
          <cc:Agent>
            <dc:title>Xavier Delaunay</dc:title>
          </cc:Agent>
        </dc:creator>
        <dc:subject>
          <rdf:Bag>
            <rdf:li>Calculator</rdf:li>
          </rdf:Bag>
        </dc:subject>
        <dc:description>Icon for Android loancalc application</dc:description>
      </cc:Work>
    </rdf:RDF>
  </metadata>
  <g
     inkscape:label="Calque 1"
     inkscape:groupmode="layer"
     id="layer1"
     transform="translate(0,-852.36218)">
    <path
       inkscape:connector-curvature="0"
       style="fill:#000000;fill-opacity:0.24313725;fill-rule:nonzero;stroke:none"
       d="m 23.837808,864.36218 c -10.99817,0 -19.84375,8.84558 -19.84375,19.84375 l 0,160.03127 c 0,10.9982 8.84558,19.8437 19.84375,19.8437 l 139.906252,0 c 10.99817,0 19.875,-8.8455 19.875,-19.8437 l 0,-160.03127 c 0,-10.99817 -8.87683,-19.84375 -19.875,-19.84375 l -139.906252,0 z m 0.71875,11.15625 138.875002,0 c 5.63087,0 10.1875,4.55663 10.1875,10.1875 l 0,48.34375 c 0,5.63087 -4.55663,10.15625 -10.1875,10.15625 l -138.875002,0 c -5.63087,0 -10.15625,-4.52538 -10.15625,-10.15625 l 0,-48.34375 c 0,-5.63087 4.52538,-10.1875 10.15625,-10.1875 z"
       id="rect2989-5" />
    <rect
       style="fill:#c0bf40;fill-opacity:0.50196081;fill-rule:nonzero;stroke:none"
       id="rect3757-0"
       width="160"
       height="70"
       x="10"
       y="862.36218"
       ry="10.358732" />
    <path
       style="fill:url(#linearGradient3948);fill-opacity:1.0;fill-rule:nonzero;stroke:#000000;stroke-opacity:1;stroke-width:2;stroke-miterlimit:4;stroke-dasharray:none"
       d="M 19.84375 0 C 8.8455797 0 0 8.8455797 0 19.84375 L 0 179.875 C 0 190.87317 8.8455797 199.71875 19.84375 199.71875 L 159.75 199.71875 C 170.74817 199.71875 179.625 190.87317 179.625 179.875 L 179.625 19.84375 C 179.625 8.8455797 170.74817 0 159.75 0 L 19.84375 0 z M 20.5625 11.15625 L 159.4375 11.15625 C 165.06837 11.15625 169.625 15.712884 169.625 21.34375 L 169.625 69.6875 C 169.625 75.318366 165.06837 79.84375 159.4375 79.84375 L 20.5625 79.84375 C 14.931634 79.84375 10.40625 75.318366 10.40625 69.6875 L 10.40625 21.34375 C 10.40625 15.712884 14.931634 11.15625 20.5625 11.15625 z "
       transform="translate(0,852.36218)"
       id="rect2989" />
    <rect
       style="fill:#202020;fill-opacity:1;fill-rule:nonzero;stroke:none"
       id="rect3759"
       width="40"
       height="79.852295"
       x="129.6158"
       y="962.36218"
       ry="9.9999971" />
    <rect
       style="fill:#000520;fill-opacity:1;fill-rule:nonzero;stroke:none"
       id="rect3761"
       width="40"
       height="10.147702"
       x="129.6158"
       y="942.21448"
       ry="3.3825667" />
    <rect
       style="fill:#000520;fill-opacity:1;fill-rule:nonzero;stroke:none"
       id="rect3763"
       width="30"
       height="9.9999971"
       x="9.615799"
       y="942.21448"
       ry="3.3333316" />
    <rect
       style="fill:#000520;fill-opacity:1;fill-rule:nonzero;stroke:none"
       id="rect3763-3"
       width="30"
       height="9.9999971"
       x="49.615799"
       y="942.21448"
       ry="3.3333316" />
    <rect
       style="fill:#000520;fill-opacity:1;fill-rule:nonzero;stroke:none"
       id="rect3763-5"
       width="30"
       height="9.9999971"
       x="89.615799"
       y="942.21448"
       ry="3.3333316" />
    <rect
       style="fill:#202020;fill-opacity:1;fill-rule:nonzero;stroke:none"
       id="rect3763-9"
       width="30"
       height="19.999998"
       x="9.615799"
       y="962.21448"
       ry="6.6666641" />
    <rect
       style="fill:#202020;fill-opacity:1;fill-rule:nonzero;stroke:none"
       id="rect3763-3-2"
       width="30"
       height="19.999998"
       x="49.615799"
       y="962.21448"
       ry="6.6666641" />
    <rect
       style="fill:#202020;fill-opacity:1;fill-rule:nonzero;stroke:none"
       id="rect3763-5-0"
       width="30"
       height="19.999998"
       x="89.615799"
       y="962.21448"
       ry="6.6666641" />
    <rect
       style="fill:#202020;fill-opacity:1;fill-rule:nonzero;stroke:none"
       id="rect3763-2"
       width="30"
       height="19.999998"
       x="9.615799"
       y="992.21448"
       ry="6.6666641" />
    <rect
       style="fill:#202020;fill-opacity:1;fill-rule:nonzero;stroke:none"
       id="rect3763-3-9"
       width="30"
       height="19.999998"
       x="49.615799"
       y="992.21448"
       ry="6.6666641" />
    <rect
       style="fill:#202020;fill-opacity:1;fill-rule:nonzero;stroke:none"
       id="rect3763-5-3"
       width="30"
       height="19.999998"
       x="89.615799"
       y="992.21448"
       ry="6.6666641" />
    <rect
       style="fill:#202020;fill-opacity:1;fill-rule:nonzero;stroke:none"
       id="rect3763-9-0"
       width="30"
       height="19.999998"
       x="9.615799"
       y="1022.2145"
       ry="6.6666641" />
    <rect
       style="fill:#202020;fill-opacity:1;fill-rule:nonzero;stroke:none"
       id="rect3763-3-2-8"
       width="30"
       height="19.999998"
       x="49.615799"
       y="1022.2145"
       ry="6.6666641" />
    <rect
       style="fill:#202020;fill-opacity:1;fill-rule:nonzero;stroke:none"
       id="rect3763-5-0-4"
       width="30"
       height="19.999998"
       x="89.615799"
       y="1022.2145"
       ry="6.6666641" />
    <path
       style="fill:none;stroke:#000000;stroke-width:10;stroke-linecap:round;stroke-linejoin:round;stroke-miterlimit:4;stroke-opacity:1;stroke-dasharray:none"
       d="m 19.615799,922.21447 30,-20 20,10 30,-20 20.000001,10 40,-30"
       id="path3003"
       inkscape:connector-curvature="0" />
  </g>
</svg>
